<svg width="60" height="60" viewBox="0 0 60 60" fill="none" xmlns="http://www.w3.org/2000/svg">
<path fill-rule="evenodd" clip-rule="evenodd" d="M15.6973 31.5721C15.3172 31.5721 14.9181 31.5254 14.5286 31.5254C11.6595 31.5199 8.85328 32.3502 6.46501 33.9112C4.07674 35.4723 2.2138 37.6939 1.11195 40.2949C0.0101079 42.896 -0.28111 45.7595 0.275154 48.5231C0.831419 51.2867 2.21016 53.8262 4.23689 55.8201C6.26362 57.8141 8.84723 59.1728 11.6607 59.7244C14.4742 60.2761 17.3912 59.9958 20.0424 58.919C22.6936 57.8422 24.9599 56.0174 26.5544 53.6755C28.149 51.3336 29.0001 48.5798 29.0001 45.7628C28.9994 45.1673 28.9645 44.5724 28.8956 43.9808C25.5803 43.7114 22.4599 42.3317 20.0571 40.0727C17.6544 37.8137 16.1152 34.8126 15.6973 31.5721Z" fill="white"/>
<path fill-rule="evenodd" clip-rule="evenodd" d="M29.0001 14.2467C29.002 11.43 28.1529 8.67607 26.5604 6.33332C24.9678 3.99058 22.7033 2.16429 20.0534 1.08554C17.4035 0.00679668 14.4872 -0.275935 11.6736 0.273119C8.85995 0.822172 6.27541 2.17834 4.24697 4.17002C2.21853 6.16171 0.837342 8.69942 0.278157 11.4621C-0.281027 14.2247 0.00692481 17.0881 1.10558 19.69C2.20423 22.292 4.06421 24.5154 6.45018 26.0791C8.83616 27.6429 11.6409 28.4765 14.5096 28.4747C14.8801 28.4747 15.2412 28.4747 15.6118 28.4747C15.8744 25.0837 17.3652 21.8973 19.8143 19.4926C22.2633 17.0879 25.5086 15.6241 28.9621 15.3663C29.0001 14.9651 29.0001 14.6105 29.0001 14.2467Z" fill="white"/>
<path fill-rule="evenodd" clip-rule="evenodd" d="M44.202 28.3626C44.7831 28.4379 45.3684 28.4753 45.9543 28.4746C48.7271 28.4838 51.4402 27.6555 53.7495 26.0946C56.0588 24.5338 57.8603 22.3107 58.9256 19.7072C59.9909 17.1038 60.2721 14.2373 59.7333 11.4712C59.1946 8.70508 57.8603 6.16396 55.8996 4.17003C53.9389 2.1761 51.4401 0.81917 48.7201 0.271307C46.0001 -0.276556 43.1814 0.00931827 40.6213 1.09269C38.0613 2.17605 35.8752 4.00811 34.3404 6.35657C32.8055 8.70502 31.991 11.4641 32.0001 14.2839C32.0001 14.6664 32.0001 15.049 32.0001 15.4315C35.1823 15.8407 38.13 17.3479 40.3509 19.7015C42.5717 22.0551 43.9311 25.1124 44.202 28.3626Z" fill="white"/>
<path fill-rule="evenodd" clip-rule="evenodd" d="M32.1194 43.8968C32.0373 44.5153 31.9974 45.1388 32.0001 45.7628C32.0001 48.5787 32.8212 51.3313 34.3596 53.6726C35.8979 56.0139 38.0844 57.8387 40.6426 58.9163C43.2007 59.9939 46.0157 60.2759 48.7314 59.7265C51.4471 59.1772 53.9417 57.8212 55.8996 55.8301C57.8575 53.839 59.1909 51.3021 59.7311 48.5404C60.2713 45.7786 59.994 42.916 58.9344 40.3144C57.8748 37.7129 56.0804 35.4894 53.7781 33.9249C51.4758 32.3605 48.7691 31.5255 46.0001 31.5255C45.3865 31.5227 44.7734 31.5633 44.1653 31.6468C43.759 34.7506 42.3591 37.632 40.182 39.846C38.0048 42.0601 35.1714 43.4837 32.1194 43.8968Z" fill="white"/>
</svg>
